<?xml version="1.0" encoding="UTF-8" standalone="no"?>
<!-- Created with Inkscape (http://www.inkscape.org/) -->

<svg
   width="155.22649mm"
   height="155.22649mm"
   viewBox="0 0 155.22649 155.22649"
   version="1.1"
   id="svg1"
   inkscape:version="1.3 (0e150ed6c4, 2023-07-21)"
   sodipodi:docname="icon.svg"
   inkscape:export-filename="icon.png"
   inkscape:export-xdpi="100"
   inkscape:export-ydpi="100"
   xmlns:inkscape="http://www.inkscape.org/namespaces/inkscape"
   xmlns:sodipodi="http://sodipodi.sourceforge.net/DTD/sodipodi-0.dtd"
   xmlns="http://www.w3.org/2000/svg"
   xmlns:svg="http://www.w3.org/2000/svg">
  <sodipodi:namedview
     id="namedview1"
     pagecolor="#ffffff"
     bordercolor="#000000"
     borderopacity="0.25"
     inkscape:showpageshadow="2"
     inkscape:pageopacity="0.0"
     inkscape:pagecheckerboard="0"
     inkscape:deskcolor="#d1d1d1"
     inkscape:document-units="mm"
     inkscape:zoom="0.76702441"
     inkscape:cx="281.60773"
     inkscape:cy="287.47455"
     inkscape:window-width="1858"
     inkscape:window-height="1057"
     inkscape:window-x="54"
     inkscape:window-y="-8"
     inkscape:window-maximized="1"
     inkscape:current-layer="layer1" />
  <defs
     id="defs1">
    <clipPath
       clipPathUnits="userSpaceOnUse"
       id="clipPath19">
      <circle
         style="fill:#32f100;fill-opacity:0.175978;stroke-width:0.896414"
         id="circle19"
         cx="107.96863"
         cy="103.48432"
         r="77.613243" />
    </clipPath>
    <clipPath
       clipPathUnits="userSpaceOnUse"
       id="clipPath20">
      <circle
         style="fill:#32f100;fill-opacity:0.175978;stroke-width:0.896414"
         id="circle20"
         cx="107.96863"
         cy="103.48432"
         r="77.613243" />
    </clipPath>
    <clipPath
       clipPathUnits="userSpaceOnUse"
       id="clipPath21">
      <circle
         style="fill:#32f100;fill-opacity:0.175978;stroke-width:0.896414"
         id="circle21"
         cx="107.96863"
         cy="103.48432"
         r="77.613243" />
    </clipPath>
    <clipPath
       clipPathUnits="userSpaceOnUse"
       id="clipPath22">
      <circle
         style="fill:#32f100;fill-opacity:0.175978;stroke-width:0.896414"
         id="circle22"
         cx="107.96863"
         cy="103.48432"
         r="77.613243" />
    </clipPath>
    <clipPath
       clipPathUnits="userSpaceOnUse"
       id="clipPath23">
      <circle
         style="fill:#32f100;fill-opacity:0.175978;stroke-width:0.896414"
         id="circle23"
         cx="107.96863"
         cy="103.48432"
         r="77.613243" />
    </clipPath>
    <clipPath
       clipPathUnits="userSpaceOnUse"
       id="clipPath24">
      <circle
         style="fill:#32f100;fill-opacity:0.175978;stroke-width:0.896414"
         id="circle24"
         cx="107.96863"
         cy="103.48432"
         r="77.613243" />
    </clipPath>
    <clipPath
       clipPathUnits="userSpaceOnUse"
       id="clipPath25">
      <circle
         style="fill:#32f100;fill-opacity:0.175978;stroke-width:0.896414"
         id="circle25"
         cx="107.96863"
         cy="103.48432"
         r="77.613243" />
    </clipPath>
    <clipPath
       clipPathUnits="userSpaceOnUse"
       id="clipPath26">
      <circle
         style="fill:#32f100;fill-opacity:0.175978;stroke-width:0.896414"
         id="circle26"
         cx="107.96863"
         cy="103.48432"
         r="77.613243" />
    </clipPath>
    <clipPath
       clipPathUnits="userSpaceOnUse"
       id="clipPath27">
      <circle
         style="fill:#32f100;fill-opacity:0.175978;stroke-width:0.896414"
         id="circle27"
         cx="107.96863"
         cy="103.48432"
         r="77.613243" />
    </clipPath>
  </defs>
  <g
     inkscape:label="Warstwa 1"
     inkscape:groupmode="layer"
     id="layer1"
     transform="translate(-30.355385,-25.871078)">
    <rect
       style="fill:#00e8f1;fill-opacity:1;stroke-width:0.646553"
       id="rect2-6"
       width="211.45297"
       height="105.55401"
       x="4.0120282"
       y="13.734707"
       clip-path="url(#clipPath27)" />
    <circle
       style="fill:#f2f662;fill-opacity:1;stroke-width:0.499999"
       id="path7"
       cx="76.233444"
       cy="62.780487"
       r="14.832753"
       clip-path="url(#clipPath26)" />
    <path
       style="fill:#b1803a;fill-opacity:1;stroke-width:0.190687"
       d="m 95.786626,85.764614 c -0.56671,0.403245 -0.65825,1.069601 -0.96203,1.619366 -0.2303,0.41679 -0.66183,0.50882 -0.75201,0.996021 -0.0447,0.241592 0.98,0.99063 0.71147,1.266959 -1.40986,1.450888 -1.44768,0.886898 -2.96072,2.195369 -0.44254,0.382675 -0.81315,0.843 -1.18562,1.294163 -0.17829,0.21591 -0.739069,0.926045 -0.819759,1.361882 -0.091,0.491635 -0.1251,0.998761 -0.088,1.497367 0.0248,0.333045 0.17176,0.64938 0.19654,0.98242 0.134539,1.80836 -1.87534,2.916866 -3.08261,3.875669 -1.89375,1.50403 -3.89584,2.83833 -5.88758,4.20781 -0.11069,0.0761 -1.98132,1.07862 -1.80217,1.55844 0.16958,0.45413 0.61927,0.90064 0.89442,1.30082 0.32498,0.47265 0.66117,0.94925 0.86055,1.48376 0.0343,0.0918 0.002,0.20122 0.0407,0.29135 0.1092,0.25484 0.55735,0.58837 0.59627,0.86721 0.0627,0.44935 0.1761,0.91154 0.31174,1.38215 0.0789,0.27357 -0.0522,0.49865 0.0475,0.76563 3.11926,5.97881 0.29508,6.98137 8.232159,1.52403 0.60016,-0.41266 1.20503,-0.91641 1.84284,-1.26709 0.79343,-0.4362 1.68672,-0.45952 2.50685,-0.76574 0.0822,-0.0307 0.13367,-0.12115 0.21681,-0.14907 0.74013,-0.2486 1.0827,0.0183 1.7887,0.0473 0.0979,0.004 0.19491,-0.0585 0.29134,-0.0407 0.0431,0.008 0.0314,0.10042 0.0745,0.1084 0.28924,0.0536 0.59135,-0.0405 0.87402,-0.122 0.0842,-0.0243 0.12919,-0.15266 0.2168,-0.14907 0.42182,0.0174 0.62639,0.29572 1.20603,0.12867 0.60281,-0.17372 0.78307,-0.77836 1.077224,-1.21962 0.15155,-0.22736 0.827,-0.88768 1.11789,-0.92828 0.0538,-0.007 1.38767,0.40032 1.82937,0.33867 0.34567,-0.0483 1.41525,-0.98522 1.51763,-1.04348 0.42986,-0.24569 0.96624,-0.30188 1.41603,-0.49468 0.32186,-0.13793 0.60023,-0.41027 0.94174,-0.48787 0.15428,-0.0347 0.31885,0.0221 0.47428,-0.007 0.62871,-0.11708 1.10546,-0.27047 1.74803,-0.24401 0.29348,0.0121 0.57716,0.11727 0.80629,0.24387 0.0384,0.0212 0.0314,0.10042 0.0745,0.10841 0.12195,0.0226 0.31165,-0.32072 0.4336,-0.29814 0.0431,0.008 0.0311,0.11446 0.0745,0.1084 0.0868,-0.0121 0.13256,-0.12476 0.21681,-0.14907 0.25832,-0.0745 1.02639,-0.0328 1.19923,-0.3456 0.13723,-0.24836 -0.30827,-1.29733 -0.38628,-1.49057 -0.29571,-0.73256 -0.4095,-1.47929 -0.72508,-2.21551 -0.44749,-1.04402 -0.33817,-0.54089 -0.67761,-1.44989 -0.80924,-2.16728 -2.26034,-3.980707 -3.22538,-6.084127 -0.44179,-0.962916 -0.73442,-2.042294 -1.24682,-2.97433 -0.46654,-0.848669 -1.17158,-1.858365 -1.78883,-2.601648 -0.63375,-0.763213 -1.28484,-1.247685 -2.14112,-1.72084 -0.10297,-0.05692 -0.12063,-0.26828 -0.2236,-0.325205 -0.0384,-0.0212 -0.07,0.09572 -0.1084,0.07453 -0.10297,-0.05692 -0.12063,-0.26828 -0.2236,-0.325205 -0.0543,-0.03004 -0.13647,0.0072 -0.18294,-0.03386 -0.43624,-0.385302 -0.57994,-1.167646 -1.04349,-1.517634 -0.280894,-0.212079 -0.775404,-0.545893 -1.104414,-0.67748 -0.0407,-0.01631 -0.0653,0.08251 -0.10841,0.07454 -0.0862,-0.01596 -0.0723,-0.17438 -0.14907,-0.216806 -0.18773,-0.103761 -0.29266,-0.05419 -0.36587,-0.06774 -0.0766,-0.01419 -0.25399,-0.207552 -0.33201,-0.250667 -0.53577,-0.296048 0.0871,0.110782 -0.29134,0.04067 -0.0431,-0.008 -0.0361,-0.08716 -0.0745,-0.108407 -0.53576,-0.296054 0.0871,0.110782 -0.29133,0.04066 -0.3785,-0.07006 0.34874,-0.226925 -0.25748,-0.14226 -0.0434,0.0061 -0.0653,0.08251 -0.10839,0.07453 -0.0431,-0.008 -0.0314,-0.10041 -0.0745,-0.108407 -0.0862,-0.01596 -0.13058,0.165026 -0.21681,0.14907 -0.0431,-0.008 -0.0314,-0.10041 -0.0745,-0.108399 -0.0431,-0.008 -0.0649,0.06845 -0.1084,0.07453 -0.25325,0.03535 -0.51042,0.03165 -0.76561,0.04747 z"
       id="path3-4-2"
       sodipodi:nodetypes="csssssssssssssssssssscsssscsssscscssssssssssssssssssssssssssssssssssc"
       clip-path="url(#clipPath25)" />
    <path
       style="fill:#9e6614;fill-opacity:1;stroke-width:0.319059"
       d="m 137.37281,112.07203 c -0.0187,-1.1636 -0.8507,-1.92151 -1.32071,-2.86152 -0.35632,-0.71265 -0.0741,-1.39486 -0.66035,-1.98106 -0.29069,-0.2907 -2.29486,0.41205 -2.4213,-0.22012 -0.66385,-3.3193 0.1495,-2.83677 -0.22011,-6.16329 -0.1081,-0.972927 -0.39143,-1.920285 -0.66036,-2.861531 -0.1287,-0.450492 -0.57616,-1.89687 -1.10058,-2.421294 -0.59155,-0.591548 -1.25844,-1.119297 -1.98106,-1.540823 -0.48267,-0.281558 -1.05815,-0.378795 -1.54082,-0.660353 -2.62082,-1.528809 -2.24382,-5.350796 -2.42129,-7.924233 -0.27841,-4.036817 -0.22012,-8.062103 -0.22012,-12.106467 0,-0.224764 0.39113,-3.754276 -0.44024,-3.962117 -0.7869,-0.196724 -1.82883,0 -2.64141,0 -0.95975,0 -1.93557,0.01138 -2.86153,-0.220118 -0.15916,-0.03979 -0.27935,-0.187941 -0.44024,-0.220118 -0.45488,-0.09098 -1.33959,0.210675 -1.76094,0 -0.679,-0.339506 -1.42373,-0.621325 -2.20117,-0.88047 -0.45194,-0.150646 -0.63799,-0.544703 -1.10059,-0.660352 -11.20031,-1.367213 -9.90529,-6.211476 -9.90529,9.905291 0,1.218656 0.12118,2.530196 0,3.741999 -0.15075,1.507467 -0.96544,2.761188 -1.32071,4.182235 -0.0356,0.142363 0.0403,0.299136 0,0.440235 -0.35889,1.256134 -1.05156,1.475467 -1.76094,2.421293 -0.0984,0.131253 -0.1041,0.324223 -0.22011,0.440235 -0.0519,0.05188 -0.16824,-0.05189 -0.220124,0 -0.34803,0.348037 -0.5047,0.853766 -0.66035,1.320706 -0.0464,0.139214 0.088,0.322839 0,0.440235 -0.42384,0.565115 -1.00153,0.583296 -1.32071,1.540823 -0.33194,0.995816 0.33081,1.817553 0.66035,2.641411 0.1698,0.424479 0.4399,1.981738 0.22012,2.421293 -0.0406,0.08127 -1.86746,1.533742 -2.20117,2.201176 -0.26118,0.522349 0.0163,2.885264 0,3.081644 -0.0688,0.82559 -0.49978,1.61839 -0.66035,2.4213 -0.11491,0.57452 -0.003,1.2165 -0.22012,1.76094 -0.0983,0.24562 -0.3328,0.4186 -0.44024,0.66035 -0.43459,0.97782 -0.67505,1.78054 -1.3207,2.64141 -0.29488,0.39316 -0.70881,0.68458 -1.10059,0.88047 -0.0656,0.0328 -0.16824,-0.0519 -0.22012,0 -0.14674,0.14675 0.14675,0.73373 0,0.88047 -0.0519,0.0519 -0.18731,-0.0656 -0.22012,0 -0.0656,0.13125 0.0464,0.30102 0,0.44024 -0.14225,0.42675 -0.92777,1.44623 -0.66035,1.98105 0.21232,0.42465 2.08092,0.80484 2.42129,0.88047 1.29035,0.28675 2.42779,0.83775 3.742,1.10059 1.86366,0.37274 1.06635,0.0465 2.641414,0.44024 3.75529,0.93882 7.63118,0.65724 11.44612,1.3207 1.74643,0.30373 3.51203,0.92351 5.28282,1.10059 1.61238,0.16124 3.67287,0.14636 5.28282,0 1.65306,-0.15028 2.93826,-0.58866 4.40236,-1.3207 0.17609,-0.088 0.48425,0.088 0.66035,0 0.0656,-0.0328 -0.0656,-0.18731 0,-0.22012 0.17609,-0.088 0.48425,0.0881 0.66035,0 0.0928,-0.0464 0.11945,-0.19495 0.22012,-0.22012 0.94478,-0.2362 2.15966,0.30733 3.08164,0 0.55869,-0.18623 1.48772,-0.55157 1.98106,-0.88047 0.0611,-0.0407 -0.0519,-0.16824 0,-0.22012 0.10377,-0.10376 0.30899,0.0656 0.44023,0 0.32103,-0.16051 0.35214,-0.35213 0.44024,-0.44023 0.0922,-0.0922 0.52695,-0.15342 0.66035,-0.22012 0.91608,-0.45804 -0.23531,0.0152 0.22012,-0.44024 0.0519,-0.0519 0.1545,0.0328 0.22012,0 0.91608,-0.45803 -0.23531,0.0152 0.22012,-0.44023 0.45543,-0.45543 -0.0178,0.69596 0.44023,-0.22012 0.0328,-0.0656 -0.0519,-0.16823 0,-0.22012 0.0519,-0.0519 0.16823,0.0519 0.22012,0 0.10376,-0.10376 -0.10376,-0.33647 0,-0.44023 0.0519,-0.0519 0.16823,0.0519 0.22012,0 0.0519,-0.0519 -0.0328,-0.15449 0,-0.22012 0.19133,-0.38266 0.44023,-0.73372 0.66035,-1.10059 z"
       id="path3-4"
       sodipodi:nodetypes="csssssssssssssssssssscsssscsssscscssssssssssssssssssssssssssssssssssc"
       clip-path="url(#clipPath24)" />
    <path
       style="fill:#68440d;fill-opacity:1;stroke-width:0.499999"
       d="m 102.79443,109.00348 c 0.0293,-1.82349 1.33314,-3.01122 2.06969,-4.48432 0.55839,-1.11678 0.1162,-2.18588 1.03484,-3.10453 0.45555,-0.45555 3.59629,0.64574 3.79443,-0.34494 1.04033,-5.201692 -0.23428,-4.445525 0.34494,-9.65854 0.16941,-1.524676 0.61341,-3.009286 1.03485,-4.48432 0.2017,-0.705969 0.90291,-2.972597 1.72473,-3.794425 0.92702,-0.927019 1.97212,-1.754058 3.10453,-2.414634 0.7564,-0.441231 1.65824,-0.593613 2.41464,-1.034844 4.1071,-2.395806 3.5163,-8.385268 3.79442,-12.418118 0.43629,-6.326123 0.34495,-12.634174 0.34495,-18.972125 0,-0.352229 -0.61295,-5.88335 0.6899,-6.20906 1.23315,-0.308287 2.86597,0 4.13937,0 1.50403,0 3.03325,0.01783 4.48432,-0.344948 0.24943,-0.06236 0.43778,-0.294524 0.6899,-0.344948 0.71285,-0.142571 2.09928,0.33015 2.75958,0 1.06408,-0.532043 2.23115,-0.973683 3.44947,-1.379791 0.70824,-0.236078 0.99981,-0.853607 1.72474,-1.034841 1.60117,-0.400294 5.96873,0 7.58885,0 1.37979,0 2.76643,-0.137295 4.13938,0 0.11441,0.01143 -0.0813,0.263641 0,0.344945 0.33522,0.33523 0.34494,-0.905703 0.34494,-1.379789 0,-1.99522 0.18685,-2.788319 1.03485,-4.484322 0.092,-0.18397 -0.20697,-0.620906 0.34494,-0.344948 0.35117,0.175585 0.54985,0.75475 0.6899,1.034843 1.87825,3.756499 1.37979,5.154832 1.37979,9.313591 0,3.679442 0,7.358885 0,11.038327 0,1.909764 -0.1899,3.965087 0,5.864112 0.23624,2.362361 1.51295,4.327076 2.06969,6.554007 0.0558,0.223098 -0.0632,0.468778 0,0.689895 0.56242,1.968496 1.64792,2.312215 2.75958,3.794425 0.15426,0.205687 0.16314,0.508092 0.34495,0.689895 0.0813,0.08131 0.26364,-0.08131 0.34494,0 0.54541,0.545411 0.79093,1.337942 1.03485,2.069687 0.0727,0.218164 -0.13798,0.505923 0,0.689895 0.66419,0.885596 1.5695,0.914087 2.06968,2.414634 0.52019,1.56055 -0.51841,2.848299 -1.03484,4.139373 -0.26608,0.665204 -0.68936,3.105594 -0.34495,3.794425 0.0637,0.127354 2.92651,2.403536 3.44948,3.449477 0.40929,0.818577 -0.0256,4.521522 0,4.829269 0.10782,1.29378 0.7832,2.53619 1.03484,3.794425 0.18007,0.900346 0.004,1.906398 0.34495,2.759578 0.15397,0.38493 0.52152,0.656 0.6899,1.03485 0.68104,1.53235 1.05788,2.79029 2.06968,4.13937 0.4621,0.61613 1.11078,1.07281 1.72474,1.37979 0.10285,0.0514 0.26364,-0.0813 0.34495,0 0.22996,0.22997 -0.22997,1.14983 0,1.37979 0.0813,0.0813 0.29353,-0.10284 0.34495,0 0.10284,0.20569 -0.0727,0.47173 0,0.6899 0.22292,0.66876 1.45391,2.26639 1.03484,3.10453 -0.33273,0.66545 -3.26103,1.26126 -3.79442,1.37979 -2.02212,0.44935 -3.80461,1.31284 -5.86412,1.72474 -2.92055,0.58411 -1.67108,0.0728 -4.13937,0.68989 -5.88494,1.47124 -11.95887,1.02996 -17.93728,2.06969 -2.73685,0.47597 -5.50373,1.44724 -8.27875,1.72474 -2.52677,0.25267 -5.75577,0.22936 -8.27874,0 -2.59052,-0.2355 -4.60457,-0.9225 -6.89896,-2.06969 -0.27596,-0.13798 -0.75888,0.13798 -1.03484,0 -0.10284,-0.0514 0.10284,-0.29353 0,-0.34495 -0.27596,-0.13798 -0.75888,0.13798 -1.03484,0 -0.14545,-0.0727 -0.18719,-0.30551 -0.34495,-0.34494 -1.48058,-0.37015 -3.38443,0.48161 -4.82927,0 -0.87552,-0.29185 -2.33141,-0.86438 -3.10453,-1.3798 -0.0957,-0.0638 0.0813,-0.26364 0,-0.34494 -0.16261,-0.16261 -0.48421,0.10284 -0.68989,0 -0.50308,-0.25154 -0.55183,-0.55183 -0.6899,-0.6899 -0.14455,-0.14455 -0.82578,-0.24042 -1.03484,-0.34495 -1.43559,-0.71779 0.36876,0.0238 -0.34495,-0.68989 -0.0813,-0.0813 -0.24211,0.0514 -0.34495,0 -1.43559,-0.7178 0.36876,0.0238 -0.34495,-0.6899 -0.71371,-0.71371 0.0279,1.09064 -0.68989,-0.34495 -0.0514,-0.10284 0.0813,-0.26364 0,-0.34494 -0.0813,-0.0813 -0.26364,0.0813 -0.34495,0 -0.16261,-0.16261 0.16261,-0.52729 0,-0.6899 -0.0813,-0.0813 -0.26364,0.0813 -0.34495,0 -0.0813,-0.0813 0.0514,-0.2421 0,-0.34495 -0.29983,-0.59967 -0.68989,-1.14982 -1.03484,-1.72474 z"
       id="path3"
       clip-path="url(#clipPath23)" />
    <path
       id="path14"
       style="fill:#135d00;fill-opacity:1;stroke-width:0.60758"
       d="m 57.166199,89.3451 a 4.2743544,10.153186 0 0 0 -3.967404,6.398329 8.0987773,6.8338755 0 0 0 -6.606274,-2.884133 8.0987773,6.8338755 0 0 0 -7.350414,3.970508 7.8738112,6.6386219 0 0 0 -4.572693,-1.236724 7.8738112,6.6386219 0 0 0 -7.873471,6.63877 7.8738112,6.6386219 0 0 0 7.873471,6.63877 7.8738112,6.6386219 0 0 0 3.67487,-0.78626 8.9986411,3.9050716 0 0 0 7.798652,1.95746 8.9986411,3.9050716 0 0 0 7.535777,-1.78489 15.522656,6.2481146 0 0 0 1.518614,0.25039 4.2743544,10.153186 0 0 0 1.968872,1.1443 4.2743544,10.153186 0 0 0 1.66623,-0.82019 15.522656,6.2481146 0 0 0 1.483564,0.0392 15.522656,6.2481146 0 0 0 7.527687,-0.79095 11.473268,2.343043 0 0 0 10.69433,-2.33363 11.473268,2.343043 0 0 0 -3.174058,-1.61757 15.522656,6.2481146 0 0 0 0.474525,-1.50642 15.522656,6.2481146 0 0 0 -14.604441,-6.235691 4.2743544,10.153186 0 0 0 -4.067837,-7.041261 z"
       clip-path="url(#clipPath22)" />
    <rect
       style="fill:#1d8000;fill-opacity:1;stroke-width:0.562973"
       id="rect2"
       width="211.45297"
       height="80.027878"
       x="3.7944255"
       y="105.55401"
       clip-path="url(#clipPath21)" />
    <path
       id="rect1"
       style="fill:#0081e5;fill-opacity:1;stroke-width:0.435364"
       d="m 80.02787,105.554 h 11.733203 c -22.976377,17.41697 47.909937,27.50925 50.842937,51.28253 1.43997,11.67159 -8.26151,19.16569 -12.21377,28.74535 H 60.448703 C 78.977302,175.48321 98.062423,165.51086 96.250219,155.9399 95.188684,150.33352 63.081692,117.94693 80.02787,105.554 Z"
       sodipodi:nodetypes="ccsccsc"
       clip-path="url(#clipPath20)" />
    <path
       id="path4"
       style="fill:#ffffff;fill-opacity:1;stroke-width:0.499999"
       d="m 65.539927,42.773465 a 8.9686403,12.245645 0 0 0 -7.93285,6.58151 13.625435,10.865854 0 0 0 -7.417118,-1.752348 13.625435,10.865854 0 0 0 -13.625525,10.866004 13.625435,10.865854 0 0 0 13.625525,10.866003 13.625435,10.865854 0 0 0 7.360274,-1.722375 8.7961674,7.0714288 0 0 0 8.162293,4.481897 8.7961674,7.0714288 0 0 0 8.372099,-4.909262 11.038327,7.7613239 0 0 0 3.528466,0.424781 11.038327,7.7613239 0 0 0 11.038603,-7.761283 11.038327,7.7613239 0 0 0 -11.038603,-7.761284 11.038327,7.7613239 0 0 0 -3.320727,0.375171 8.9686403,12.245645 0 0 0 -8.752437,-9.688814 z"
       clip-path="url(#clipPath19)" />
  </g>
</svg>
